<?xml version="1.0" standalone="no"?>
<!DOCTYPE svg PUBLIC "-//W3C//DTD SVG 20010904//EN"
 "http://www.w3.org/TR/2001/REC-SVG-20010904/DTD/svg10.dtd">
<svg version="1.0" xmlns="http://www.w3.org/2000/svg"
 width="700.000000pt" height="700.000000pt" viewBox="0 0 700.000000 700.000000"
 preserveAspectRatio="xMidYMid meet">
<metadata>
Created by potrace 1.11, written by Peter Selinger 2001-2013
</metadata>
<g transform="translate(0.000000,700.000000) scale(0.100000,-0.100000)"
fill="#000000" stroke="none">
<path d="M3298 6995 c-2 -1 -41 -5 -88 -9 -100 -7 -225 -22 -295 -36 -27 -5
-61 -12 -75 -14 -209 -38 -523 -132 -677 -202 -28 -13 -54 -24 -58 -24 -11 0
-280 -136 -355 -180 -76 -44 -234 -145 -254 -161 -6 -5 -56 -43 -111 -84 -538
-404 -960 -982 -1185 -1620 -31 -86 -97 -310 -105 -354 -3 -14 -7 -37 -10 -51
-18 -79 -44 -223 -50 -275 -4 -33 -9 -69 -11 -80 -11 -60 -18 -225 -18 -420 0
-285 12 -410 69 -706 27 -137 132 -484 175 -576 11 -24 20 -45 20 -48 0 -3 19
-46 42 -97 142 -316 372 -664 611 -923 101 -110 281 -280 367 -347 30 -23 57
-45 60 -48 14 -14 165 -122 240 -171 317 -207 665 -361 1027 -454 73 -19 146
-37 161 -40 16 -2 64 -12 108 -20 43 -8 106 -18 139 -21 33 -3 63 -8 66 -9 29
-18 531 -26 709 -12 104 9 108 9 290 38 493 79 1023 300 1445 603 618 444
1077 1077 1304 1801 58 187 111 422 126 565 4 30 8 61 11 68 24 74 24 781 -1
821 -1 4 -6 33 -9 66 -3 33 -8 69 -10 80 -2 11 -11 61 -21 110 -55 293 -156
595 -294 875 -68 140 -68 140 -168 301 -65 106 -167 256 -182 269 -3 3 -19 23
-36 45 -16 22 -39 51 -51 65 -12 14 -41 48 -64 75 -85 100 -258 271 -380 376
-317 272 -782 533 -1155 649 -22 7 -50 16 -61 20 -61 23 -324 88 -421 104 -47
8 -235 34 -293 41 -54 7 -526 16 -532 10z m2872 -2650 c30 -4 55 -6 55 -6 0 4
166 -59 196 -74 191 -97 332 -283 388 -507 20 -83 33 -267 22 -319 l-6 -25
-622 0 c-342 0 -625 -2 -628 -6 -8 -8 46 -145 66 -166 8 -10 20 -25 25 -34 5
-9 31 -34 57 -56 202 -166 542 -163 755 7 30 24 55 41 56 39 1 -1 46 -53 99
-114 l97 -112 -46 -46 c-82 -81 -178 -136 -308 -175 -97 -30 -152 -36 -301
-35 -153 1 -203 7 -310 41 -229 73 -394 211 -492 413 -98 202 -103 482 -12
702 108 261 364 449 649 475 36 3 66 7 68 8 4 4 133 -3 192 -10z"/>
<path d="M5935 4044 c-131 -23 -219 -79 -295 -190 -27 -38 -70 -148 -70 -177
0 -10 84 -13 454 -13 l455 1 -6 30 c-18 94 -62 172 -132 238 -106 99 -250 139
-406 111z"/>
</g>
</svg>
